<?xml version="1.0" encoding="utf-8"?>
<!-- Generator: Adobe Illustrator 16.0.3, SVG Export Plug-In . SVG Version: 6.00 Build 0)  -->
<!DOCTYPE svg PUBLIC "-//W3C//DTD SVG 1.1//EN" "http://www.w3.org/Graphics/SVG/1.1/DTD/svg11.dtd">
<svg version="1.1" xmlns="http://www.w3.org/2000/svg" xmlns:xlink="http://www.w3.org/1999/xlink" x="0px" y="0px" width="750px"
	 height="500px" viewBox="0 0 750 500" enable-background="new 0 0 750 500" xml:space="preserve">
<g id="BACKGROUND">
	<rect display="none" fill="#EEC5B9" width="750" height="500"/>
</g>
<g id="OBJECTS">
	<g>
		<defs>
			<rect id="SVGID_1_" width="750" height="500"/>
		</defs>
		<clipPath id="SVGID_2_">
			<use xlink:href="#SVGID_1_"  display="none" overflow="visible"/>
		</clipPath>
		<path display="none" opacity="0.1" clip-path="url(#SVGID_2_)" fill="#F9F9F9" d="M792.357,97.295
			c-68.697-16.432-138.525,16.792-201.086,49.588s-131.385,67.195-200.61,53.153c-37.696-7.646-70.991-29.061-107.034-42.492
			c-49.816-18.564-104.357-21.565-157.258-16.286c-52.9,5.279-104.632,18.554-156.121,31.785c-0.386,0.771-2.234,3.037-2.619,3.808
			v59.027c271.937,0,544.935,11.14,816.826,16.093L792.357,97.295z"/>
		<path display="none" opacity="0.1" clip-path="url(#SVGID_2_)" fill="#F9F9F9" d="M800.339,147.088
			c-14.7-4.583-29.399-9.166-44.1-13.75c-25.83-8.053-51.739-16.126-78.365-20.933c-70.418-12.713-144.852-1.606-208.699,30.703
			c-49.723,25.161-94.245,63.113-148.766,74.646c1.764,0-0.83,3.69,0.934,3.69h460.331L800.339,147.088z"/>
		<path display="none" opacity="0.1" clip-path="url(#SVGID_2_)" fill="#F9F9F9" d="M303.296,220.778
			c-49.804-12.326-93.692-41.108-140.673-61.727c-76.702-33.661-162.894-45.366-245.795-33.38c-0.274,1.681,0.307,3.657,0.032,5.338
			v96.543L303.296,220.778z"/>
		<g display="none" clip-path="url(#SVGID_2_)">
			<path display="inline" fill="#EDAE9B" d="M-118.529,189.418l103.229-44.331c4.865-2.089,11.563-2.16,16.563-0.175l102.165,40.555
				c5.154,2.046,12.09,1.901,16.963-0.354l11.357-5.256c4.977-2.303,12.087-2.4,17.254-0.235l50.937,21.339
				c4.84,2.027,11.431,2.083,16.377,0.139l10.422-4.097c4.907-1.929,11.438-1.89,16.272,0.097l9.316,3.829
				c4.96,2.038,11.688,2.021,16.615-0.042l82.576-34.583c5.052-2.116,11.979-2.075,16.951,0.101l18.066,7.903
				c5.589,2.444,13.522,2.16,18.52-0.664l0,0c5.021-2.837,13.002-3.109,18.589-0.632l41.001,18.17
				c5.171,2.292,12.465,2.25,17.552-0.102l21.778-10.069c4.81-2.224,11.635-2.396,16.775-0.423l13.636,5.232
				c4.867,1.868,11.279,1.822,16.063-0.114l102.788-41.619c3.861-1.563,8.861-1.917,13.286-0.94l87.364,19.292
				c4.525,1,9.645,0.605,13.532-1.042l46.041-19.512c5.035-2.134,11.968-2.113,16.963,0.051l33.344,14.444
				c3.465,1.501,5.497,3.828,5.497,6.295v175.155c0,4.381-6.285,7.933-14.037,7.933h-965.262c-7.753,0-14.037-3.552-14.037-7.933
				V195.733C-124.072,193.254-122.021,190.917-118.529,189.418z"/>
			<path display="inline" fill="#E89AA3" d="M-26.17,220.463l63.201-28.01c11.27-4.995,23.915-5.959,35.813-2.733l77.367,20.981
				c8.119,2.202,16.644,2.465,24.884,0.769l6.334-1.304c8.079-1.663,16.433-1.443,24.413,0.644l88.596,23.166
				c9.738,2.546,19.996,2.304,29.604-0.699l54.982-17.183c10-3.125,20.696-3.257,30.771-0.379l0,0
				c10.81,3.088,22.315,2.707,32.896-1.092l7.296-2.619c7.994-2.87,16.555-3.802,24.979-2.721l147.586,18.941
				c7.205,0.925,14.523,0.378,21.512-1.607l113.341-32.201v192.229c0,29.657-24.042,53.7-53.699,53.7H27.529
				c-29.657,0-53.699-24.043-53.699-53.7V220.463z"/>
			<path display="inline" fill="#AF8CAD" d="M-26.17,348.007c0-19.17,14.09-35.426,33.065-38.148l140.06-50.881
				c7.224-2.624,15.087-2.922,22.488-0.853l90.314,25.253c0.693-0.131,61.31-16.748,62.01-16.841l65.973-16.662
				c1.672-0.22,3.355-0.331,5.041-0.331h17.135c3.656,0,7.295,0.521,10.805,1.546l95.568,27.914
				c6.869,2.007,14.162,2.061,21.061,0.156l63.654-17.573c2.814-0.777,5.531-1.872,8.1-3.263l57.273-31.023
				c5.637-3.053,11.945-4.652,18.355-4.652h4.749c4.491,0,8.948-0.786,13.17-2.32l8.909-3.24
				c10.579-3.847,22.311-2.876,32.113,2.656l20.587,11.619v116.643c0,21.284-17.254,38.539-38.539,38.539H12.369
				C-8.916,386.546-26.17,369.291-26.17,348.007L-26.17,348.007z"/>
			<path display="inline" fill="#9E81A8" d="M-36.424,258.831l60.357-20.337c1.576-0.531,3.116-1.166,4.608-1.9l17.755-8.733
				c5.185-2.55,10.886-3.877,16.664-3.877h9.615c8.706,0,17.145,3.009,23.887,8.517l60.264,49.23l85.026,63.998
				c4.968,3.738,10.781,6.193,16.925,7.145l58.457,9.057c1.913,0.297,3.846,0.445,5.781,0.445h61.341
				c6.189,0,12.284-1.521,17.748-4.431l98.654-52.539c1.031-0.549,2.087-1.05,3.164-1.501l28.359-11.875
				c5.81-2.433,12.136-3.374,18.402-2.736l31.471,3.198c4.478,0.455,8.837,1.707,12.873,3.696l50.471,24.875
				c8.44,4.16,18.131,5.019,27.171,2.406l18.518-5.349c7.937-2.293,16.405-1.92,24.109,1.063l8.801,3.406
				c6.655,2.576,13.904,3.214,20.908,1.838l45.034-8.846v84.628H1.334c-20.853,0-37.758-16.904-37.758-37.758V258.831z"/>
			<path display="inline" fill="#84617E" d="M-59.242,389.889l115.55-36.231c1.246-0.391,2.447-0.914,3.582-1.56l41.077-23.357
				c5.017-2.852,11.081-3.18,16.376-0.886l49.47,21.438c1.216,0.526,2.484,0.92,3.784,1.174l199.725,38.974
				c1.53,0.298,3.092,0.4,4.647,0.305l76.593-4.727c1.121-0.069,2.233-0.241,3.322-0.514l109.13-27.282
				c0.457-0.115,0.92-0.212,1.385-0.29l52.782-8.946c3.418-0.579,6.603-2.115,9.185-4.429l69.055-61.88
				c2.371-2.125,5.253-3.597,8.364-4.271l54.96-11.908v190.813H-59.242V389.889z"/>
			<path display="inline" fill="#281F32" d="M680.524,382.073l-10.532,3.159c-9.126,2.738-18.943,1.996-27.555-2.083l-14.791-7.006
				c-9.291-4.401-19.956-4.905-29.621-1.399l-55.387,20.092c-3.906,1.417-8.017,2.192-12.171,2.296l-78.975,1.975
				c-3.069,0.076-6.118,0.52-9.081,1.32l-120.913,32.661c-3.274,0.884-6.652,1.332-10.044,1.332h-59.953
				c-5.489,0-10.914-1.173-15.913-3.441l-69.532-31.547c-2.502-1.135-5.118-1.999-7.804-2.578l-84.247-18.146
				c-5.961-1.283-12.142-1.134-18.033,0.438l-69.67,18.578V502h790.084v-91.183l-70.747-27.715
				C697.619,379.96,688.775,379.598,680.524,382.073z"/>
		</g>
		<circle clip-path="url(#SVGID_2_)" fill="#F9F9F9" cx="570.781" cy="90.045" r="26.217"/>
		<g display="none" clip-path="url(#SVGID_2_)">
			<path display="inline" fill="#281F32" d="M281.063,191.644c0,0,1.658,4.544,10.691,6.57l5.096,2.851l3.18-0.414l-2.524-2.431
				c0,0,5.471-2.627,8.375-5.711l5.271-1.884c0,0-8.768,1.288-13.214,4.924l-3.125,1.605l-8.422-2.075
				C286.391,195.079,282.594,193.145,281.063,191.644z"/>
			<path display="inline" fill="#281F32" d="M14.952,80.85c0,0,1.379,3.78,8.892,5.464l4.239,2.371l2.645-0.344l-2.101-2.022
				c0,0,4.551-2.185,6.967-4.75l4.383-1.567c0,0-7.292,1.071-10.99,4.096l-2.6,1.335l-7.004-1.726
				C19.383,83.707,16.225,82.099,14.952,80.85z"/>
			<path display="inline" fill="#281F32" d="M191.715,175.337c0,0,2.11,7.093,15.716,11.023l7.519,4.825l4.893-0.337l-3.629-3.947
				c0,0,8.598-3.504,13.318-7.945l8.222-2.389c0,0-13.507,1.154-20.634,6.295l-4.921,2.162l-12.668-3.949
				C199.53,181.075,193.911,177.771,191.715,175.337z"/>
			<path display="inline" fill="#281F32" d="M228.309,142.742c0,0,1.302,4.345,9.647,6.739l4.613,2.949l3-0.212l-2.229-2.416
				c0,0,5.266-2.158,8.154-4.886l5.037-1.474c0,0-8.278,0.723-12.641,3.883l-3.015,1.331l-7.77-2.406
				C233.106,146.25,229.658,144.231,228.309,142.742z"/>
			<path display="inline" fill="#281F32" d="M142.856,190.391c0,0,0.732,2.446,5.43,3.793l2.598,1.66l1.688-0.12l-1.255-1.359
				c0,0,2.965-1.215,4.591-2.75l2.835-0.83c0,0-4.659,0.407-7.115,2.186l-1.696,0.75l-4.374-1.354
				C145.557,192.366,143.616,191.229,142.856,190.391z"/>
			<path display="inline" fill="#281F32" d="M343.917,172.61c0,0,0.732,2.446,5.43,3.793l2.597,1.66l1.688-0.12l-1.255-1.359
				c0,0,2.965-1.214,4.591-2.75l2.835-0.83c0,0-4.66,0.407-7.115,2.186l-1.697,0.749l-4.373-1.354
				C346.617,174.585,344.676,173.449,343.917,172.61z"/>
			<polygon display="inline" fill="#281F32" points="196.914,153.288 193.776,153.81 183.665,154.566 187.85,155.705 
				184.827,156.843 178.436,155.147 171.229,154.566 165.883,155.147 170.992,154.11 177.994,154.331 180.064,153.582 
				187.023,153.81 			"/>
			<polygon display="inline" fill="#281F32" points="385.478,236.774 381.461,237.442 368.519,238.411 373.874,239.868 
				370.006,241.325 361.823,239.155 352.6,238.411 345.757,239.155 352.297,237.827 361.26,238.109 363.909,237.15 372.816,237.442 
							"/>
			<polygon display="inline" fill="#281F32" points="311.151,120.086 308.793,120.478 301.194,121.046 304.339,121.902 
				302.067,122.757 297.264,121.483 291.849,121.046 287.831,121.483 291.671,120.704 296.933,120.869 298.488,120.307 
				303.718,120.478 			"/>
			<polygon display="inline" fill="#281F32" points="222.99,114.653 221.32,114.931 215.94,115.333 218.166,115.939 
				216.559,116.544 213.156,115.643 209.322,115.333 206.478,115.643 209.196,115.09 212.923,115.208 214.024,114.809 
				217.727,114.931 			"/>
			<polygon display="inline" fill="#281F32" points="307.142,167.168 303.125,167.836 290.183,168.804 295.538,170.261 
				291.67,171.718 283.488,169.548 274.265,168.804 267.421,169.548 273.961,168.22 282.924,168.502 285.573,167.544 
				294.48,167.836 			"/>
			<polygon display="inline" fill="#281F32" points="102.349,104.171 98.332,104.839 85.389,105.807 90.744,107.264 86.877,108.721 
				78.694,106.551 69.471,105.807 62.627,106.551 69.167,105.223 78.131,105.505 80.78,104.547 89.688,104.839 			"/>
			<polygon display="inline" fill="#281F32" points="110.024,136.2 120.866,138.439 131.895,143.515 133.605,145.537 
				135.992,145.268 136.324,142.917 143.691,136.489 153.523,135.058 142.817,135.191 135.029,139.612 131.172,139.894 
				121.743,137.217 			"/>
		</g>
	</g>
</g>
</svg>
